<svg xmlns="http://www.w3.org/2000/svg" xmlns:xlink="http://www.w3.org/1999/xlink" width="500" zoomAndPan="magnify" viewBox="0 0 375 374.999991" height="500" preserveAspectRatio="xMidYMid meet" version="1.0"><defs><g/></defs><path fill="#ffffff" d="M 108.867188 14.601562 L -4.75 121.878906 C -7.554688 124.527344 -8.59375 128.546875 -7.425781 132.222656 L 3.953125 168.035156 C 4.699219 170.378906 6.144531 172.441406 8.09375 173.9375 L 122.515625 261.820312 C 126.0625 264.542969 131.113281 264.039062 134.054688 260.671875 L 136.511719 257.851562 C 139.261719 254.695312 143.816406 253.839844 147.523438 255.773438 L 164.324219 264.535156 C 166.964844 265.910156 170.003906 266.3125 172.90625 265.664062 L 324.582031 231.875 C 328.296875 231.046875 330.621094 227.34375 329.75 223.640625 L 327.929688 215.914062 C 326.972656 211.847656 328.269531 207.578125 331.328125 204.730469 L 393.953125 146.371094 C 397.839844 142.75 397.988281 136.640625 394.285156 132.835938 L 273.550781 8.78125 C 270.25 5.390625 264.859375 5.210938 261.339844 8.378906 L 243.207031 24.695312 C 239.589844 27.949219 234.226562 28.304688 230.210938 25.558594 C 223.746094 21.136719 210.242188 15.53125 193.816406 15.53125 C 175.472656 15.53125 161.546875 23.480469 153.183594 28.605469 C 149.21875 31.035156 144.195312 30.867188 140.386719 28.199219 L 119.859375 13.800781 C 116.46875 11.425781 111.875 11.761719 108.867188 14.601562 Z M 108.867188 14.601562 " fill-opacity="1" fill-rule="nonzero"/><path fill="#0fb1ea" d="M 114.035156 22.222656 L 13.574219 159.21875 L 132.734375 249.386719 L 229.628906 109.695312 Z M 114.035156 22.222656 " fill-opacity="1" fill-rule="nonzero"/><path fill="#000000" d="M 114.035156 22.222656 L 2.875 130.5 L 13.574219 159.21875 Z M 114.035156 22.222656 " fill-opacity="1" fill-rule="nonzero"/><path fill="#000000" d="M 184.121094 105.574219 C 183.492188 105.574219 182.855469 105.375 182.316406 104.960938 C 181.011719 103.960938 180.765625 102.09375 181.761719 100.789062 C 182.023438 100.453125 207.429688 67.003906 204.492188 45.328125 C 203.796875 40.199219 201.59375 36.292969 197.75 33.382812 C 193.902344 30.472656 189.527344 29.421875 184.433594 30.148438 C 162.789062 33.25 137.636719 66.855469 137.382812 67.195312 C 136.402344 68.515625 134.542969 68.792969 133.222656 67.808594 C 131.90625 66.832031 131.628906 64.96875 132.609375 63.652344 C 133.695312 62.183594 159.515625 27.710938 183.589844 24.261719 C 190.257812 23.300781 196.234375 24.777344 201.339844 28.640625 C 206.4375 32.5 209.484375 37.847656 210.386719 44.535156 C 213.648438 68.667969 187.59375 102.964844 186.484375 104.410156 C 185.898438 105.171875 185.015625 105.574219 184.121094 105.574219 Z M 184.121094 105.574219 " fill-opacity="1" fill-rule="nonzero"/><path fill="#f7ce26" d="M 128.824219 87.652344 L 169.988281 252.472656 L 315.492188 218.453125 L 269.976562 54.648438 Z M 128.824219 87.652344 " fill-opacity="1" fill-rule="nonzero"/><path fill="#000000" d="M 128.824219 87.652344 L 140.101562 242.441406 L 169.988281 252.472656 Z M 128.824219 87.652344 " fill-opacity="1" fill-rule="nonzero"/><path fill="#000000" d="M 175.441406 102.117188 C 174.105469 102.117188 172.886719 101.207031 172.554688 99.847656 C 172.125 98.074219 162.117188 56.179688 174.847656 35.457031 C 178.375 29.714844 183.324219 26.0625 189.554688 24.609375 C 195.777344 23.148438 201.839844 24.222656 207.566406 27.804688 C 228.207031 40.71875 237.933594 82.675781 238.339844 84.453125 C 238.703125 86.058594 237.695312 87.648438 236.097656 88.011719 C 234.480469 88.390625 232.894531 87.375 232.535156 85.773438 C 232.441406 85.359375 222.953125 44.441406 204.40625 32.84375 C 200.019531 30.101562 195.601562 29.300781 190.910156 30.398438 C 186.214844 31.496094 182.621094 34.167969 179.914062 38.570312 C 168.46875 57.199219 178.234375 98.027344 178.335938 98.4375 C 178.726562 100.03125 177.746094 101.640625 176.152344 102.03125 C 175.914062 102.089844 175.675781 102.117188 175.441406 102.117188 Z M 175.441406 102.117188 " fill-opacity="1" fill-rule="nonzero"/><path fill="#f07423" d="M 154.59375 112.214844 L 267.722656 238.953125 L 380.683594 141.132812 L 264.179688 17.324219 Z M 154.59375 112.214844 " fill-opacity="1" fill-rule="nonzero"/><path fill="#000000" d="M 154.59375 112.214844 L 236.597656 243.976562 L 267.722656 238.953125 Z M 154.59375 112.214844 " fill-opacity="1" fill-rule="nonzero"/><path fill="#000000" d="M 201.207031 103.667969 C 200.386719 103.667969 199.566406 103.328125 198.976562 102.660156 C 197.769531 101.289062 169.414062 68.867188 171.042969 44.601562 C 171.492188 37.878906 174.175781 32.34375 179.011719 28.152344 C 183.847656 23.964844 189.714844 22.09375 196.445312 22.605469 C 220.726562 24.429688 248.855469 57.039062 250.039062 58.429688 C 251.109375 59.675781 250.960938 61.554688 249.710938 62.621094 C 248.464844 63.683594 246.585938 63.539062 245.519531 62.292969 C 245.246094 61.972656 217.808594 30.167969 195.992188 28.535156 C 190.863281 28.148438 186.550781 29.492188 182.90625 32.648438 C 179.261719 35.804688 177.320312 39.84375 176.976562 45 C 175.511719 66.816406 203.160156 98.40625 203.4375 98.722656 C 204.523438 99.953125 204.40625 101.832031 203.175781 102.921875 C 202.609375 103.421875 201.90625 103.667969 201.207031 103.667969 Z M 201.207031 103.667969 " fill-opacity="1" fill-rule="nonzero"/><g fill="#000000" fill-opacity="1"><g transform="translate(4.118547, 290.409826)"><g><path d="M 16.125 21.4375 C 15.488281 22.363281 14.632812 23.09375 13.5625 23.625 C 12.5 24.164062 11.40625 24.4375 10.28125 24.4375 C 9.3125 24.4375 8.398438 24.21875 7.546875 23.78125 C 6.691406 23.34375 6.070312 22.660156 5.6875 21.734375 C 4.957031 19.742188 4.375 17.128906 3.9375 13.890625 C 3.5 10.660156 3.179688 7.050781 2.984375 3.0625 C 2.796875 -0.925781 2.703125 -5.007812 2.703125 -9.1875 C 2.703125 -13.03125 2.773438 -16.820312 2.921875 -20.5625 C 3.066406 -24.3125 3.269531 -27.835938 3.53125 -31.140625 C 3.800781 -34.453125 4.101562 -37.359375 4.4375 -39.859375 C 4.78125 -42.359375 5.171875 -44.265625 5.609375 -45.578125 C 6.390625 -48.015625 7.507812 -49.753906 8.96875 -50.796875 C 10.425781 -51.847656 11.910156 -52.375 13.421875 -52.375 C 15.117188 -52.375 16.648438 -51.847656 18.015625 -50.796875 C 19.378906 -49.753906 20.15625 -48.40625 20.34375 -46.75 C 20.832031 -47.582031 21.878906 -48.335938 23.484375 -49.015625 C 25.085938 -49.691406 26.960938 -50.03125 29.109375 -50.03125 C 31.242188 -50.03125 33.460938 -49.53125 35.765625 -48.53125 C 38.078125 -47.539062 40.179688 -45.734375 42.078125 -43.109375 C 43.347656 -41.398438 44.367188 -38.804688 45.140625 -35.328125 C 45.921875 -31.859375 46.3125 -28.101562 46.3125 -24.0625 C 46.3125 -20.8125 45.984375 -17.546875 45.328125 -14.265625 C 44.671875 -10.984375 43.585938 -8.003906 42.078125 -5.328125 C 40.578125 -2.648438 38.5625 -0.5 36.03125 1.125 C 33.5 2.757812 30.382812 3.578125 26.6875 3.578125 C 24.207031 3.578125 21.5625 3.1875 18.75 2.40625 C 18.75 2.75 18.710938 3.523438 18.640625 4.734375 C 18.566406 5.953125 18.457031 7.390625 18.3125 9.046875 C 18.164062 10.703125 17.992188 12.378906 17.796875 14.078125 C 17.597656 15.773438 17.351562 17.289062 17.0625 18.625 C 16.769531 19.96875 16.457031 20.90625 16.125 21.4375 Z M 20.5 -40.765625 C 20.394531 -40.671875 20.28125 -39.894531 20.15625 -38.4375 C 20.039062 -36.976562 19.929688 -35.082031 19.828125 -32.75 C 19.734375 -30.414062 19.640625 -27.863281 19.546875 -25.09375 C 19.453125 -22.320312 19.351562 -19.5625 19.25 -16.8125 C 19.15625 -14.0625 19.070312 -11.539062 19 -9.25 C 18.925781 -6.96875 18.875 -5.125 18.84375 -3.71875 C 18.820312 -2.3125 18.8125 -1.609375 18.8125 -1.609375 C 20.519531 -0.535156 22.148438 0 23.703125 0 C 25.597656 0 27.273438 -0.738281 28.734375 -2.21875 C 30.191406 -3.707031 31.421875 -5.664062 32.421875 -8.09375 C 33.421875 -10.53125 34.175781 -13.226562 34.6875 -16.1875 C 35.195312 -19.15625 35.453125 -22.125 35.453125 -25.09375 C 35.453125 -28.351562 35.132812 -31.40625 34.5 -34.25 C 33.863281 -37.09375 32.925781 -39.390625 31.6875 -41.140625 C 30.445312 -42.890625 28.878906 -43.765625 26.984375 -43.765625 C 25.085938 -43.765625 22.925781 -42.765625 20.5 -40.765625 Z M 20.5 -40.765625 "/></g></g></g><g fill="#000000" fill-opacity="1"><g transform="translate(51.739138, 290.409826)"><g><path d="M 15.390625 19.625 C 12.273438 19.226562 9.734375 18.054688 7.765625 16.109375 C 5.796875 14.171875 4.300781 11.765625 3.28125 8.890625 C 2.257812 6.023438 1.648438 3.0625 1.453125 0 C 1.410156 -1.507812 1.351562 -2.96875 1.28125 -4.375 C 1.207031 -5.78125 1.171875 -7.117188 1.171875 -8.390625 C 1.171875 -11.015625 1.351562 -13.320312 1.71875 -15.3125 C 2.082031 -17.3125 2.738281 -18.867188 3.6875 -19.984375 C 4.632812 -21.097656 6.003906 -21.65625 7.796875 -21.65625 C 8.191406 -21.65625 8.582031 -21.628906 8.96875 -21.578125 C 9.363281 -21.535156 9.78125 -21.46875 10.21875 -21.375 C 11.914062 -21.03125 13.210938 -20.429688 14.109375 -19.578125 C 15.015625 -18.734375 15.46875 -17.144531 15.46875 -14.8125 L 15.46875 -13.78125 C 15.363281 -12.957031 15.25 -11.597656 15.125 -9.703125 C 15.007812 -7.804688 14.914062 -5.726562 14.84375 -3.46875 C 14.769531 -1.207031 14.734375 0.941406 14.734375 2.984375 C 14.734375 4.441406 14.753906 5.742188 14.796875 6.890625 C 14.847656 8.035156 14.925781 8.925781 15.03125 9.5625 C 15.363281 11.207031 16.175781 12.394531 17.46875 13.125 C 18.757812 13.851562 20.15625 14.21875 21.65625 14.21875 C 23.21875 14.21875 24.601562 13.851562 25.8125 13.125 C 27.03125 12.394531 27.640625 11.425781 27.640625 10.21875 L 27.640625 10.140625 C 27.597656 9.753906 27.578125 9.335938 27.578125 8.890625 C 27.578125 8.453125 27.578125 7.992188 27.578125 7.515625 C 27.578125 5.953125 27.625 4.148438 27.71875 2.109375 C 27.8125 0.0664062 27.941406 -2.019531 28.109375 -4.15625 C 28.285156 -6.289062 28.445312 -8.28125 28.59375 -10.125 C 28.738281 -11.976562 28.867188 -13.515625 28.984375 -14.734375 C 29.109375 -15.953125 29.171875 -16.65625 29.171875 -16.84375 C 29.273438 -18.550781 30.019531 -19.878906 31.40625 -20.828125 C 32.789062 -21.773438 34.304688 -22.25 35.953125 -22.25 C 37.410156 -22.25 38.785156 -21.796875 40.078125 -20.890625 C 41.367188 -19.992188 42.179688 -18.550781 42.515625 -16.5625 C 42.617188 -15.875 42.71875 -14.570312 42.8125 -12.65625 C 42.90625 -10.738281 42.953125 -8.535156 42.953125 -6.046875 C 42.953125 -3.378906 42.878906 -0.585938 42.734375 2.328125 C 42.585938 5.242188 42.320312 7.953125 41.9375 10.453125 C 41.550781 12.960938 41.015625 14.972656 40.328125 16.484375 C 40.035156 17.066406 39.460938 17.722656 38.609375 18.453125 C 37.765625 19.179688 36.796875 19.800781 35.703125 20.3125 C 34.609375 20.820312 33.523438 21.078125 32.453125 21.078125 C 31.628906 21.078125 30.863281 20.84375 30.15625 20.375 C 29.457031 19.914062 28.9375 19.128906 28.59375 18.015625 C 28.394531 17.234375 28.128906 16.84375 27.796875 16.84375 C 27.492188 16.84375 27.148438 16.941406 26.765625 17.140625 C 25.253906 17.867188 23.722656 18.488281 22.171875 19 C 20.617188 19.507812 18.988281 19.765625 17.28125 19.765625 C 16.945312 19.765625 16.632812 19.75 16.34375 19.71875 C 16.050781 19.695312 15.734375 19.664062 15.390625 19.625 Z M 15.390625 19.625 "/></g></g></g><g fill="#000000" fill-opacity="1"><g transform="translate(97.244872, 290.409826)"><g><path d="M 34.140625 -12.40625 C 33.742188 -12.40625 33.398438 -12.5625 33.109375 -12.875 C 32.816406 -13.1875 32.625 -13.5625 32.53125 -14 C 32.332031 -15.070312 32.171875 -16.066406 32.046875 -16.984375 C 31.929688 -17.910156 31.675781 -18.835938 31.28125 -19.765625 C 30.894531 -20.691406 30.191406 -21.613281 29.171875 -22.53125 C 28.492188 -23.164062 27.691406 -23.484375 26.765625 -23.484375 C 25.597656 -23.484375 24.40625 -23.019531 23.1875 -22.09375 C 21.976562 -21.175781 20.957031 -20.0625 20.125 -18.75 C 19.300781 -17.4375 18.863281 -16.195312 18.8125 -15.03125 C 18.625 -11.382812 18.359375 -7.804688 18.015625 -4.296875 C 17.671875 -0.796875 17.28125 2.410156 16.84375 5.328125 C 16.40625 8.242188 15.96875 10.695312 15.53125 12.6875 C 15.09375 14.6875 14.65625 16 14.21875 16.625 C 13.882812 17.207031 13.410156 17.632812 12.796875 17.90625 C 12.191406 18.175781 11.523438 18.3125 10.796875 18.3125 C 9.671875 18.3125 8.550781 18.019531 7.4375 17.4375 C 6.320312 16.851562 5.640625 16.097656 5.390625 15.171875 C 5.003906 13.765625 4.664062 11.953125 4.375 9.734375 C 4.082031 7.523438 3.828125 5.082031 3.609375 2.40625 C 3.390625 -0.269531 3.207031 -2.976562 3.0625 -5.71875 C 2.914062 -8.46875 2.804688 -11.09375 2.734375 -13.59375 C 2.660156 -16.101562 2.609375 -18.289062 2.578125 -20.15625 C 2.554688 -22.03125 2.546875 -23.382812 2.546875 -24.21875 L 2.546875 -25.53125 C 2.546875 -27.375 2.984375 -28.953125 3.859375 -30.265625 C 4.734375 -31.578125 5.835938 -32.597656 7.171875 -33.328125 C 8.515625 -34.054688 9.894531 -34.421875 11.3125 -34.421875 C 12.914062 -34.421875 14.375 -33.910156 15.6875 -32.890625 C 17 -31.867188 17.820312 -30.289062 18.15625 -28.15625 C 18.207031 -26.882812 18.523438 -26.25 19.109375 -26.25 C 19.640625 -26.25 20.332031 -26.566406 21.1875 -27.203125 C 22.039062 -27.835938 23.070312 -28.46875 24.28125 -29.09375 C 25.5 -29.726562 26.910156 -30.046875 28.515625 -30.046875 C 29.148438 -30.046875 29.785156 -29.972656 30.421875 -29.828125 C 32.609375 -29.390625 34.304688 -28.441406 35.515625 -26.984375 C 36.734375 -25.523438 37.597656 -23.941406 38.109375 -22.234375 C 38.617188 -20.535156 38.875 -19.054688 38.875 -17.796875 C 38.875 -17.453125 38.859375 -17.160156 38.828125 -16.921875 C 38.804688 -16.679688 38.773438 -16.460938 38.734375 -16.265625 C 38.585938 -15.242188 38.207031 -14.453125 37.59375 -13.890625 C 36.988281 -13.335938 36.367188 -12.953125 35.734375 -12.734375 C 35.109375 -12.515625 34.625 -12.40625 34.28125 -12.40625 Z M 34.140625 -12.40625 "/></g></g></g><g fill="#000000" fill-opacity="1"><g transform="translate(137.208244, 290.409826)"><g><path d="M 29.765625 -15.53125 C 29.421875 -14.175781 28.722656 -13.0625 27.671875 -12.1875 C 26.628906 -11.3125 25.398438 -10.601562 23.984375 -10.0625 C 22.578125 -9.53125 21.132812 -9.128906 19.65625 -8.859375 C 18.175781 -8.585938 16.816406 -8.390625 15.578125 -8.265625 C 14.335938 -8.148438 13.375 -8.046875 12.6875 -7.953125 C 12.539062 -4.597656 12.46875 -1.679688 12.46875 0.796875 C 12.46875 4.546875 12.648438 7.453125 13.015625 9.515625 C 13.378906 11.585938 13.9375 13.046875 14.6875 13.890625 C 15.445312 14.742188 16.382812 15.242188 17.5 15.390625 C 17.644531 15.390625 17.789062 15.398438 17.9375 15.421875 C 18.082031 15.453125 18.207031 15.46875 18.3125 15.46875 C 20.207031 15.46875 21.675781 14.921875 22.71875 13.828125 C 23.757812 12.734375 24.546875 11.34375 25.078125 9.65625 C 25.617188 7.976562 26.007812 6.265625 26.25 4.515625 C 26.351562 3.691406 26.515625 2.9375 26.734375 2.25 C 26.953125 1.570312 27.546875 1.210938 28.515625 1.171875 C 29.347656 1.171875 29.957031 1.484375 30.34375 2.109375 C 30.726562 2.742188 30.921875 3.597656 30.921875 4.671875 C 30.921875 6.128906 30.566406 7.816406 29.859375 9.734375 C 29.160156 11.660156 28.175781 13.535156 26.90625 15.359375 C 25.644531 17.179688 24.148438 18.6875 22.421875 19.875 C 20.703125 21.0625 18.796875 21.65625 16.703125 21.65625 L 16.34375 21.65625 C 14.25 21.613281 12.382812 20.992188 10.75 19.796875 C 9.125 18.609375 7.710938 17.039062 6.515625 15.09375 C 5.328125 13.15625 4.367188 11.039062 3.640625 8.75 C 2.910156 6.46875 2.363281 4.144531 2 1.78125 C 1.632812 -0.570312 1.453125 -2.742188 1.453125 -4.734375 L 1.453125 -6.125 C 1.554688 -9.476562 1.828125 -12.832031 2.265625 -16.1875 C 2.703125 -19.539062 3.429688 -22.59375 4.453125 -25.34375 C 5.472656 -28.09375 6.914062 -30.289062 8.78125 -31.9375 C 10.65625 -33.59375 13.050781 -34.421875 15.96875 -34.421875 C 16.695312 -34.421875 17.472656 -34.359375 18.296875 -34.234375 C 19.128906 -34.117188 19.984375 -33.941406 20.859375 -33.703125 C 23.285156 -33.015625 25.179688 -31.878906 26.546875 -30.296875 C 27.910156 -28.722656 28.867188 -26.960938 29.421875 -25.015625 C 29.984375 -23.066406 30.265625 -21.242188 30.265625 -19.546875 C 30.265625 -18.765625 30.21875 -18.035156 30.125 -17.359375 C 30.03125 -16.679688 29.910156 -16.070312 29.765625 -15.53125 Z M 20.34375 -28.734375 C 20.15625 -28.785156 19.972656 -28.820312 19.796875 -28.84375 C 19.628906 -28.875 19.445312 -28.890625 19.25 -28.890625 C 18.039062 -28.890625 17.046875 -28.363281 16.265625 -27.3125 C 15.484375 -26.269531 14.882812 -25.03125 14.46875 -23.59375 C 14.0625 -22.15625 13.785156 -20.78125 13.640625 -19.46875 C 13.492188 -18.15625 13.421875 -17.207031 13.421875 -16.625 L 13.421875 -16.265625 C 13.421875 -15.734375 13.734375 -15.285156 14.359375 -14.921875 C 14.992188 -14.554688 15.921875 -14.375 17.140625 -14.375 C 18.597656 -14.375 20.375 -14.6875 22.46875 -15.3125 C 23.4375 -15.601562 24.125 -16.175781 24.53125 -17.03125 C 24.945312 -17.882812 25.15625 -18.84375 25.15625 -19.90625 C 25.15625 -21.125 24.9375 -22.375 24.5 -23.65625 C 24.0625 -24.945312 23.476562 -26.066406 22.75 -27.015625 C 22.019531 -27.972656 21.21875 -28.546875 20.34375 -28.734375 Z M 20.34375 -28.734375 "/></g></g></g><g fill="#000000" fill-opacity="1"><g transform="translate(169.951951, 290.409826)"><g/></g></g><g fill="#000000" fill-opacity="1"><g transform="translate(188.183418, 290.409826)"><g><path d="M 32.828125 -55.359375 C 36.804688 -55.265625 40.191406 -54.316406 42.984375 -52.515625 C 45.785156 -50.710938 48.050781 -48.316406 49.78125 -45.328125 C 51.507812 -42.335938 52.773438 -39.003906 53.578125 -35.328125 C 54.378906 -31.660156 54.78125 -27.929688 54.78125 -24.140625 C 54.78125 -23.066406 54.742188 -21.992188 54.671875 -20.921875 C 54.597656 -19.859375 54.507812 -18.816406 54.40625 -17.796875 C 54.257812 -16.335938 53.75 -15.035156 52.875 -13.890625 C 52 -12.753906 50.953125 -11.867188 49.734375 -11.234375 C 48.523438 -10.597656 47.289062 -10.28125 46.03125 -10.28125 C 44.46875 -10.28125 43.078125 -10.890625 41.859375 -12.109375 C 40.648438 -13.328125 40.046875 -15.34375 40.046875 -18.15625 L 40.046875 -18.8125 C 40.140625 -20.46875 40.207031 -22.207031 40.25 -24.03125 C 40.300781 -25.851562 40.328125 -27.664062 40.328125 -29.46875 C 40.328125 -32.039062 40.21875 -34.53125 40 -36.9375 C 39.78125 -39.34375 39.378906 -41.503906 38.796875 -43.421875 C 38.210938 -45.347656 37.375 -46.867188 36.28125 -47.984375 C 35.1875 -49.109375 33.765625 -49.671875 32.015625 -49.671875 L 31.953125 -49.671875 C 30.097656 -49.671875 28.414062 -48.914062 26.90625 -47.40625 C 25.40625 -45.894531 24.109375 -43.828125 23.015625 -41.203125 C 21.921875 -38.578125 20.992188 -35.5625 20.234375 -32.15625 C 19.484375 -28.757812 18.925781 -25.128906 18.5625 -21.265625 C 18.195312 -17.398438 18.015625 -13.519531 18.015625 -9.625 C 18.015625 -5.15625 18.253906 -0.816406 18.734375 3.390625 C 19.222656 7.597656 19.941406 11.363281 20.890625 14.6875 C 21.835938 18.019531 23.015625 20.671875 24.421875 22.640625 C 25.835938 24.609375 27.492188 25.617188 29.390625 25.671875 L 29.609375 25.671875 C 30.828125 25.671875 32.09375 25.378906 33.40625 24.796875 C 34.71875 24.210938 35.847656 23.164062 36.796875 21.65625 C 37.742188 20.15625 38.316406 18.039062 38.515625 15.3125 C 38.660156 13.757812 39.289062 12.59375 40.40625 11.8125 C 41.519531 11.039062 42.734375 10.65625 44.046875 10.65625 C 45.367188 10.65625 46.550781 11.03125 47.59375 11.78125 C 48.632812 12.53125 49.15625 13.660156 49.15625 15.171875 L 49.15625 15.46875 C 49.113281 16.632812 48.738281 18.113281 48.03125 19.90625 C 47.320312 21.707031 46.203125 23.53125 44.671875 25.375 C 43.140625 27.226562 41.082031 28.785156 38.5 30.046875 C 35.925781 31.316406 32.722656 32 28.890625 32.09375 C 25.378906 32.039062 22.210938 31.1875 19.390625 29.53125 C 16.578125 27.882812 14.085938 25.648438 11.921875 22.828125 C 9.753906 20.003906 7.941406 16.742188 6.484375 13.046875 C 5.023438 9.359375 3.921875 5.410156 3.171875 1.203125 C 2.421875 -3.003906 2.046875 -7.269531 2.046875 -11.59375 C 2.046875 -15.96875 2.429688 -20.269531 3.203125 -24.5 C 3.984375 -28.738281 5.160156 -32.71875 6.734375 -36.4375 C 8.316406 -40.15625 10.300781 -43.4375 12.6875 -46.28125 C 15.070312 -49.125 17.878906 -51.347656 21.109375 -52.953125 C 24.347656 -54.554688 28.035156 -55.359375 32.171875 -55.359375 Z M 32.828125 -55.359375 "/></g></g></g><g fill="#000000" fill-opacity="1"><g transform="translate(246.013626, 290.409826)"><g><path d="M 28.734375 23.484375 C 27.617188 23.390625 26.878906 23.195312 26.515625 22.90625 C 26.148438 22.613281 25.96875 22.222656 25.96875 21.734375 C 25.96875 21.296875 26.039062 20.820312 26.1875 20.3125 C 26.332031 19.800781 26.40625 19.253906 26.40625 18.671875 C 26.40625 18.234375 26.332031 17.796875 26.1875 17.359375 C 26.1875 17.304688 26.171875 17.28125 26.140625 17.28125 C 26.117188 17.28125 26.109375 17.28125 26.109375 17.28125 C 26.015625 17.28125 25.820312 17.507812 25.53125 17.96875 C 25.238281 18.4375 24.785156 18.984375 24.171875 19.609375 C 23.566406 20.242188 22.738281 20.816406 21.6875 21.328125 C 20.644531 21.835938 19.300781 22.144531 17.65625 22.25 L 16.625 22.25 C 13.757812 22.25 11.414062 21.738281 9.59375 20.71875 C 7.769531 19.695312 6.320312 18.359375 5.25 16.703125 C 4.175781 15.046875 3.328125 13.269531 2.703125 11.375 C 2.304688 10.113281 2.109375 8.847656 2.109375 7.578125 C 2.109375 5.734375 2.445312 3.828125 3.125 1.859375 C 3.8125 -0.109375 4.832031 -1.929688 6.1875 -3.609375 C 7.550781 -5.285156 9.226562 -6.632812 11.21875 -7.65625 C 13.21875 -8.675781 15.507812 -9.1875 18.09375 -9.1875 C 20.082031 -9.1875 21.695312 -8.953125 22.9375 -8.484375 C 24.175781 -8.023438 25.125 -7.550781 25.78125 -7.0625 C 26.4375 -6.582031 26.882812 -6.34375 27.125 -6.34375 C 27.320312 -6.34375 27.421875 -6.5625 27.421875 -7 L 27.421875 -7.296875 C 27.367188 -8.898438 27.34375 -10.671875 27.34375 -12.609375 C 27.34375 -14.554688 27.257812 -16.488281 27.09375 -18.40625 C 26.925781 -20.332031 26.5625 -22.109375 26 -23.734375 C 25.4375 -25.367188 24.597656 -26.679688 23.484375 -27.671875 C 22.367188 -28.671875 20.863281 -29.195312 18.96875 -29.25 C 17.800781 -29.195312 16.5 -28.707031 15.0625 -27.78125 C 13.625 -26.863281 12.382812 -25.320312 11.34375 -23.15625 C 10.300781 -20.988281 9.753906 -18.007812 9.703125 -14.21875 C 9.703125 -13.007812 9.347656 -12.113281 8.640625 -11.53125 C 7.929688 -10.945312 7.117188 -10.65625 6.203125 -10.65625 C 5.179688 -10.65625 4.21875 -10.992188 3.3125 -11.671875 C 2.414062 -12.347656 1.921875 -13.296875 1.828125 -14.515625 C 1.828125 -14.753906 1.8125 -15.019531 1.78125 -15.3125 C 1.757812 -15.601562 1.75 -15.875 1.75 -16.125 C 1.75 -21.082031 3.234375 -25.101562 6.203125 -28.1875 C 9.171875 -31.28125 13.570312 -32.828125 19.40625 -32.828125 L 20.640625 -32.828125 C 24.484375 -32.828125 27.65625 -32.109375 30.15625 -30.671875 C 32.664062 -29.234375 34.625 -27.320312 36.03125 -24.9375 C 37.4375 -22.5625 38.421875 -19.878906 38.984375 -16.890625 C 39.546875 -13.898438 39.828125 -10.820312 39.828125 -7.65625 C 39.828125 -4.15625 39.59375 -0.765625 39.125 2.515625 C 38.664062 5.796875 38.15625 8.675781 37.59375 11.15625 C 37.039062 13.632812 36.640625 15.382812 36.390625 16.40625 C 35.910156 18.351562 35.125 20.03125 34.03125 21.4375 C 32.9375 22.851562 31.414062 23.5625 29.46875 23.5625 C 29.375 23.5625 29.253906 23.546875 29.109375 23.515625 C 28.960938 23.492188 28.835938 23.484375 28.734375 23.484375 Z M 18.375 18.09375 L 18.453125 18.09375 C 20.148438 18.09375 21.617188 17.640625 22.859375 16.734375 C 24.097656 15.835938 25.082031 14.84375 25.8125 13.75 C 26.539062 12.65625 26.929688 11.84375 26.984375 11.3125 C 27.273438 8.632812 27.457031 6.585938 27.53125 5.171875 C 27.601562 3.765625 27.640625 2.671875 27.640625 1.890625 L 27.640625 -1.75 C 27.640625 -2.039062 27.285156 -2.441406 26.578125 -2.953125 C 25.878906 -3.460938 25.019531 -3.921875 24 -4.328125 C 22.976562 -4.742188 22.003906 -4.953125 21.078125 -4.953125 C 18.890625 -4.953125 17.1875 -4.503906 15.96875 -3.609375 C 14.757812 -2.710938 13.882812 -1.664062 13.34375 -0.46875 C 12.8125 0.71875 12.445312 1.796875 12.25 2.765625 C 12.207031 3.015625 12.125 3.625 12 4.59375 C 11.875 5.5625 11.8125 6.679688 11.8125 7.953125 C 11.8125 9.410156 11.984375 10.914062 12.328125 12.46875 C 12.671875 14.03125 13.316406 15.34375 14.265625 16.40625 C 15.210938 17.476562 16.582031 18.039062 18.375 18.09375 Z M 18.375 18.09375 "/></g></g></g><g fill="#000000" fill-opacity="1"><g transform="translate(287.946012, 290.409826)"><g><path d="M 34.140625 -12.40625 C 33.742188 -12.40625 33.398438 -12.5625 33.109375 -12.875 C 32.816406 -13.1875 32.625 -13.5625 32.53125 -14 C 32.332031 -15.070312 32.171875 -16.066406 32.046875 -16.984375 C 31.929688 -17.910156 31.675781 -18.835938 31.28125 -19.765625 C 30.894531 -20.691406 30.191406 -21.613281 29.171875 -22.53125 C 28.492188 -23.164062 27.691406 -23.484375 26.765625 -23.484375 C 25.597656 -23.484375 24.40625 -23.019531 23.1875 -22.09375 C 21.976562 -21.175781 20.957031 -20.0625 20.125 -18.75 C 19.300781 -17.4375 18.863281 -16.195312 18.8125 -15.03125 C 18.625 -11.382812 18.359375 -7.804688 18.015625 -4.296875 C 17.671875 -0.796875 17.28125 2.410156 16.84375 5.328125 C 16.40625 8.242188 15.96875 10.695312 15.53125 12.6875 C 15.09375 14.6875 14.65625 16 14.21875 16.625 C 13.882812 17.207031 13.410156 17.632812 12.796875 17.90625 C 12.191406 18.175781 11.523438 18.3125 10.796875 18.3125 C 9.671875 18.3125 8.550781 18.019531 7.4375 17.4375 C 6.320312 16.851562 5.640625 16.097656 5.390625 15.171875 C 5.003906 13.765625 4.664062 11.953125 4.375 9.734375 C 4.082031 7.523438 3.828125 5.082031 3.609375 2.40625 C 3.390625 -0.269531 3.207031 -2.976562 3.0625 -5.71875 C 2.914062 -8.46875 2.804688 -11.09375 2.734375 -13.59375 C 2.660156 -16.101562 2.609375 -18.289062 2.578125 -20.15625 C 2.554688 -22.03125 2.546875 -23.382812 2.546875 -24.21875 L 2.546875 -25.53125 C 2.546875 -27.375 2.984375 -28.953125 3.859375 -30.265625 C 4.734375 -31.578125 5.835938 -32.597656 7.171875 -33.328125 C 8.515625 -34.054688 9.894531 -34.421875 11.3125 -34.421875 C 12.914062 -34.421875 14.375 -33.910156 15.6875 -32.890625 C 17 -31.867188 17.820312 -30.289062 18.15625 -28.15625 C 18.207031 -26.882812 18.523438 -26.25 19.109375 -26.25 C 19.640625 -26.25 20.332031 -26.566406 21.1875 -27.203125 C 22.039062 -27.835938 23.070312 -28.46875 24.28125 -29.09375 C 25.5 -29.726562 26.910156 -30.046875 28.515625 -30.046875 C 29.148438 -30.046875 29.785156 -29.972656 30.421875 -29.828125 C 32.609375 -29.390625 34.304688 -28.441406 35.515625 -26.984375 C 36.734375 -25.523438 37.597656 -23.941406 38.109375 -22.234375 C 38.617188 -20.535156 38.875 -19.054688 38.875 -17.796875 C 38.875 -17.453125 38.859375 -17.160156 38.828125 -16.921875 C 38.804688 -16.679688 38.773438 -16.460938 38.734375 -16.265625 C 38.585938 -15.242188 38.207031 -14.453125 37.59375 -13.890625 C 36.988281 -13.335938 36.367188 -12.953125 35.734375 -12.734375 C 35.109375 -12.515625 34.625 -12.40625 34.28125 -12.40625 Z M 34.140625 -12.40625 "/></g></g></g><g fill="#000000" fill-opacity="1"><g transform="translate(327.909373, 290.409826)"><g><path d="M 22.609375 22.6875 L 22.25 22.6875 C 18.457031 22.6875 15.5625 21.75 13.5625 19.875 C 11.570312 18 10.210938 15.210938 9.484375 11.515625 C 8.753906 7.828125 8.390625 3.304688 8.390625 -2.046875 C 8.390625 -5.492188 8.472656 -9.304688 8.640625 -13.484375 C 8.804688 -17.671875 8.988281 -22.171875 9.1875 -26.984375 C 7.53125 -27.179688 5.972656 -27.472656 4.515625 -27.859375 C 3.054688 -28.253906 2.207031 -28.984375 1.96875 -30.046875 L 1.96875 -30.125 C 1.96875 -30.5625 2.332031 -31.035156 3.0625 -31.546875 C 3.789062 -32.054688 4.757812 -32.492188 5.96875 -32.859375 C 7.1875 -33.222656 8.476562 -33.40625 9.84375 -33.40625 C 9.894531 -33.894531 9.976562 -34.769531 10.09375 -36.03125 C 10.21875 -37.289062 10.351562 -38.722656 10.5 -40.328125 C 10.644531 -41.929688 10.800781 -43.507812 10.96875 -45.0625 C 11.144531 -46.625 11.304688 -47.953125 11.453125 -49.046875 C 11.597656 -50.140625 11.71875 -50.785156 11.8125 -50.984375 C 11.914062 -51.710938 12.425781 -52.242188 13.34375 -52.578125 C 14.269531 -52.921875 15.289062 -53.09375 16.40625 -53.09375 C 17.53125 -53.09375 18.613281 -52.921875 19.65625 -52.578125 C 20.695312 -52.242188 21.316406 -51.757812 21.515625 -51.125 C 21.710938 -50.539062 21.847656 -49.894531 21.921875 -49.1875 C 21.992188 -48.488281 22.03125 -47.726562 22.03125 -46.90625 C 22.03125 -44.851562 21.859375 -42.695312 21.515625 -40.4375 C 21.171875 -38.175781 20.878906 -36.242188 20.640625 -34.640625 L 20.640625 -34.359375 C 20.640625 -33.816406 20.976562 -33.546875 21.65625 -33.546875 C 22 -33.503906 22.617188 -33.429688 23.515625 -33.328125 C 24.421875 -33.234375 25.382812 -33.132812 26.40625 -33.03125 C 27.425781 -32.9375 28.359375 -32.851562 29.203125 -32.78125 C 30.054688 -32.707031 30.609375 -32.625 30.859375 -32.53125 C 31.242188 -32.382812 31.664062 -32.101562 32.125 -31.6875 C 32.59375 -31.28125 32.828125 -30.804688 32.828125 -30.265625 C 32.828125 -29.785156 32.582031 -29.375 32.09375 -29.03125 C 31.75 -28.832031 31.113281 -28.625 30.1875 -28.40625 C 29.269531 -28.1875 28.210938 -27.992188 27.015625 -27.828125 C 25.828125 -27.660156 24.660156 -27.515625 23.515625 -27.390625 C 22.378906 -27.265625 21.445312 -27.203125 20.71875 -27.203125 C 20.613281 -27.203125 20.453125 -26.457031 20.234375 -24.96875 C 20.015625 -23.488281 19.796875 -21.519531 19.578125 -19.0625 C 19.359375 -16.613281 19.175781 -13.894531 19.03125 -10.90625 C 18.882812 -7.914062 18.8125 -4.910156 18.8125 -1.890625 C 18.8125 1.503906 18.945312 4.707031 19.21875 7.71875 C 19.488281 10.738281 19.953125 13.171875 20.609375 15.015625 C 21.265625 16.867188 22.175781 17.796875 23.34375 17.796875 L 23.40625 17.796875 C 24.769531 17.796875 25.953125 17.269531 26.953125 16.21875 C 27.953125 15.175781 28.78125 13.863281 29.4375 12.28125 C 30.09375 10.707031 30.578125 9.066406 30.890625 7.359375 C 31.203125 5.660156 31.359375 4.128906 31.359375 2.765625 L 31.359375 2.109375 C 31.359375 0.410156 31.859375 -0.800781 32.859375 -1.53125 C 33.859375 -2.257812 34.941406 -2.625 36.109375 -2.625 C 37.222656 -2.625 38.253906 -2.34375 39.203125 -1.78125 C 40.148438 -1.226562 40.671875 -0.460938 40.765625 0.515625 C 40.765625 0.660156 40.773438 0.816406 40.796875 0.984375 C 40.828125 1.148438 40.84375 1.359375 40.84375 1.609375 C 40.84375 2.722656 40.707031 4.140625 40.4375 5.859375 C 40.175781 7.585938 39.664062 9.425781 38.90625 11.375 C 38.15625 13.320312 37.109375 15.144531 35.765625 16.84375 C 34.429688 18.550781 32.679688 19.953125 30.515625 21.046875 C 28.359375 22.140625 25.722656 22.6875 22.609375 22.6875 Z M 22.609375 22.6875 "/></g></g></g><g fill="#000000" fill-opacity="1"><g transform="translate(58.503747, 347.624977)"><g><path d="M 2.640625 -11.28125 C 3.984375 -12.550781 5.632812 -13.1875 7.59375 -13.1875 C 9.550781 -13.1875 11.195312 -12.550781 12.53125 -11.28125 C 13.875 -10.007812 14.546875 -8.4375 14.546875 -6.5625 C 14.546875 -4.6875 13.875 -3.109375 12.53125 -1.828125 C 11.195312 -0.546875 9.550781 0.09375 7.59375 0.09375 C 5.632812 0.09375 3.984375 -0.546875 2.640625 -1.828125 C 1.304688 -3.109375 0.640625 -4.6875 0.640625 -6.5625 C 0.640625 -8.4375 1.304688 -10.007812 2.640625 -11.28125 Z M 7.609375 -11.1875 C 6.304688 -11.1875 5.191406 -10.738281 4.265625 -9.84375 C 3.347656 -8.957031 2.890625 -7.863281 2.890625 -6.5625 C 2.890625 -5.257812 3.351562 -4.15625 4.28125 -3.25 C 5.21875 -2.34375 6.328125 -1.890625 7.609375 -1.890625 C 8.898438 -1.890625 10 -2.34375 10.90625 -3.25 C 11.820312 -4.15625 12.28125 -5.257812 12.28125 -6.5625 C 12.28125 -7.863281 11.820312 -8.957031 10.90625 -9.84375 C 10 -10.738281 8.898438 -11.1875 7.609375 -11.1875 Z M 7.609375 -11.1875 "/></g></g></g><g fill="#000000" fill-opacity="1"><g transform="translate(79.319249, 347.624977)"><g><path d="M 13.109375 0 L 10.9375 0 L 3.9375 -9.40625 L 3.9375 0 L 1.71875 0 L 1.71875 -13.125 L 3.90625 -13.125 L 10.9375 -3.6875 L 10.9375 -13.125 L 13.109375 -13.125 Z M 13.109375 0 "/></g></g></g><g fill="#000000" fill-opacity="1"><g transform="translate(99.797254, 347.624977)"><g><path d="M 3.9375 -2 L 9.625 -2 L 9.625 0 L 1.71875 0 L 1.71875 -13.125 L 3.9375 -13.125 Z M 3.9375 -2 "/></g></g></g><g fill="#000000" fill-opacity="1"><g transform="translate(115.437739, 347.624977)"><g><path d="M 3.9375 0 L 1.71875 0 L 1.71875 -13.125 L 3.9375 -13.125 Z M 3.9375 0 "/></g></g></g><g fill="#000000" fill-opacity="1"><g transform="translate(126.72821, 347.624977)"><g><path d="M 13.109375 0 L 10.9375 0 L 3.9375 -9.40625 L 3.9375 0 L 1.71875 0 L 1.71875 -13.125 L 3.90625 -13.125 L 10.9375 -3.6875 L 10.9375 -13.125 L 13.109375 -13.125 Z M 13.109375 0 "/></g></g></g><g fill="#000000" fill-opacity="1"><g transform="translate(147.206214, 347.624977)"><g><path d="M 11.09375 -11.140625 L 3.9375 -11.140625 L 3.9375 -7.59375 L 10.34375 -7.59375 L 10.34375 -5.609375 L 3.9375 -5.609375 L 3.9375 -1.984375 L 11.328125 -1.984375 L 11.328125 0 L 1.71875 0 L 1.71875 -13.125 L 11.09375 -13.125 Z M 11.09375 -11.140625 "/></g></g></g><g fill="#000000" fill-opacity="1"><g transform="translate(165.134213, 347.624977)"><g/></g></g><g fill="#000000" fill-opacity="1"><g transform="translate(175.599685, 347.624977)"><g><path d="M 6.03125 -13.21875 C 7.738281 -13.21875 9.269531 -12.769531 10.625 -11.875 L 9.71875 -9.921875 C 8.375 -10.734375 7.09375 -11.140625 5.875 -11.140625 C 5.207031 -11.140625 4.679688 -11.019531 4.296875 -10.78125 C 3.921875 -10.539062 3.734375 -10.203125 3.734375 -9.765625 C 3.734375 -9.328125 3.90625 -8.953125 4.25 -8.640625 C 4.601562 -8.335938 5.039062 -8.113281 5.5625 -7.96875 C 6.09375 -7.832031 6.660156 -7.65625 7.265625 -7.4375 C 7.878906 -7.21875 8.445312 -6.984375 8.96875 -6.734375 C 9.5 -6.492188 9.9375 -6.113281 10.28125 -5.59375 C 10.625 -5.070312 10.796875 -4.445312 10.796875 -3.71875 C 10.796875 -2.5625 10.335938 -1.640625 9.421875 -0.953125 C 8.503906 -0.265625 7.3125 0.078125 5.84375 0.078125 C 4.84375 0.078125 3.875 -0.109375 2.9375 -0.484375 C 2 -0.859375 1.179688 -1.363281 0.484375 -2 L 1.4375 -3.921875 C 2.101562 -3.304688 2.832031 -2.832031 3.625 -2.5 C 4.414062 -2.164062 5.171875 -2 5.890625 -2 C 6.660156 -2 7.257812 -2.140625 7.6875 -2.421875 C 8.125 -2.703125 8.34375 -3.09375 8.34375 -3.59375 C 8.34375 -4.050781 8.164062 -4.429688 7.8125 -4.734375 C 7.46875 -5.035156 7.03125 -5.257812 6.5 -5.40625 C 5.976562 -5.550781 5.410156 -5.726562 4.796875 -5.9375 C 4.179688 -6.144531 3.613281 -6.363281 3.09375 -6.59375 C 2.570312 -6.820312 2.132812 -7.191406 1.78125 -7.703125 C 1.425781 -8.210938 1.25 -8.832031 1.25 -9.5625 C 1.25 -10.675781 1.6875 -11.5625 2.5625 -12.21875 C 3.4375 -12.882812 4.59375 -13.21875 6.03125 -13.21875 Z M 6.03125 -13.21875 "/></g></g></g><g fill="#000000" fill-opacity="1"><g transform="translate(192.890173, 347.624977)"><g><path d="M 13.109375 0 L 10.890625 0 L 10.890625 -5.4375 L 3.9375 -5.4375 L 3.9375 0 L 1.71875 0 L 1.71875 -13.125 L 3.9375 -13.125 L 3.9375 -7.421875 L 10.890625 -7.421875 L 10.890625 -13.125 L 13.109375 -13.125 Z M 13.109375 0 "/></g></g></g><g fill="#000000" fill-opacity="1"><g transform="translate(213.349416, 347.624977)"><g><path d="M 2.640625 -11.28125 C 3.984375 -12.550781 5.632812 -13.1875 7.59375 -13.1875 C 9.550781 -13.1875 11.195312 -12.550781 12.53125 -11.28125 C 13.875 -10.007812 14.546875 -8.4375 14.546875 -6.5625 C 14.546875 -4.6875 13.875 -3.109375 12.53125 -1.828125 C 11.195312 -0.546875 9.550781 0.09375 7.59375 0.09375 C 5.632812 0.09375 3.984375 -0.546875 2.640625 -1.828125 C 1.304688 -3.109375 0.640625 -4.6875 0.640625 -6.5625 C 0.640625 -8.4375 1.304688 -10.007812 2.640625 -11.28125 Z M 7.609375 -11.1875 C 6.304688 -11.1875 5.191406 -10.738281 4.265625 -9.84375 C 3.347656 -8.957031 2.890625 -7.863281 2.890625 -6.5625 C 2.890625 -5.257812 3.351562 -4.15625 4.28125 -3.25 C 5.21875 -2.34375 6.328125 -1.890625 7.609375 -1.890625 C 8.898438 -1.890625 10 -2.34375 10.90625 -3.25 C 11.820312 -4.15625 12.28125 -5.257812 12.28125 -6.5625 C 12.28125 -7.863281 11.820312 -8.957031 10.90625 -9.84375 C 10 -10.738281 8.898438 -11.1875 7.609375 -11.1875 Z M 7.609375 -11.1875 "/></g></g></g><g fill="#000000" fill-opacity="1"><g transform="translate(234.164913, 347.624977)"><g><path d="M 1.71875 -13.125 L 6.953125 -13.125 C 8.609375 -13.125 9.890625 -12.734375 10.796875 -11.953125 C 11.703125 -11.171875 12.15625 -10.066406 12.15625 -8.640625 C 12.15625 -7.148438 11.703125 -5.992188 10.796875 -5.171875 C 9.890625 -4.359375 8.609375 -3.953125 6.953125 -3.953125 L 3.9375 -3.953125 L 3.9375 0 L 1.71875 0 Z M 3.9375 -11.140625 L 3.9375 -5.9375 L 6.859375 -5.9375 C 8.972656 -5.9375 10.03125 -6.820312 10.03125 -8.59375 C 10.03125 -10.289062 8.972656 -11.140625 6.859375 -11.140625 Z M 3.9375 -11.140625 "/></g></g></g><g fill="#000000" fill-opacity="1"><g transform="translate(252.411646, 347.624977)"><g><path d="M 1.71875 -13.125 L 6.953125 -13.125 C 8.609375 -13.125 9.890625 -12.734375 10.796875 -11.953125 C 11.703125 -11.171875 12.15625 -10.066406 12.15625 -8.640625 C 12.15625 -7.148438 11.703125 -5.992188 10.796875 -5.171875 C 9.890625 -4.359375 8.609375 -3.953125 6.953125 -3.953125 L 3.9375 -3.953125 L 3.9375 0 L 1.71875 0 Z M 3.9375 -11.140625 L 3.9375 -5.9375 L 6.859375 -5.9375 C 8.972656 -5.9375 10.03125 -6.820312 10.03125 -8.59375 C 10.03125 -10.289062 8.972656 -11.140625 6.859375 -11.140625 Z M 3.9375 -11.140625 "/></g></g></g><g fill="#000000" fill-opacity="1"><g transform="translate(270.658379, 347.624977)"><g><path d="M 3.9375 0 L 1.71875 0 L 1.71875 -13.125 L 3.9375 -13.125 Z M 3.9375 0 "/></g></g></g><g fill="#000000" fill-opacity="1"><g transform="translate(281.948845, 347.624977)"><g><path d="M 13.109375 0 L 10.9375 0 L 3.9375 -9.40625 L 3.9375 0 L 1.71875 0 L 1.71875 -13.125 L 3.90625 -13.125 L 10.9375 -3.6875 L 10.9375 -13.125 L 13.109375 -13.125 Z M 13.109375 0 "/></g></g></g><g fill="#000000" fill-opacity="1"><g transform="translate(302.426855, 347.624977)"><g><path d="M 10.703125 -6.453125 L 12.640625 -6.453125 L 12.640625 -1.609375 C 11.960938 -1.097656 11.164062 -0.6875 10.25 -0.375 C 9.332031 -0.0625 8.425781 0.09375 7.53125 0.09375 C 5.59375 0.09375 3.957031 -0.546875 2.625 -1.828125 C 1.300781 -3.109375 0.640625 -4.6875 0.640625 -6.5625 C 0.640625 -8.4375 1.3125 -10.007812 2.65625 -11.28125 C 4.007812 -12.550781 5.679688 -13.1875 7.671875 -13.1875 C 8.597656 -13.1875 9.503906 -13.019531 10.390625 -12.6875 C 11.285156 -12.351562 12.0625 -11.90625 12.71875 -11.34375 L 11.453125 -9.71875 C 10.378906 -10.71875 9.117188 -11.21875 7.671875 -11.21875 C 6.328125 -11.21875 5.191406 -10.765625 4.265625 -9.859375 C 3.347656 -8.960938 2.890625 -7.863281 2.890625 -6.5625 C 2.890625 -5.25 3.351562 -4.140625 4.28125 -3.234375 C 5.21875 -2.335938 6.351562 -1.890625 7.6875 -1.890625 C 8.695312 -1.890625 9.703125 -2.191406 10.703125 -2.796875 Z M 10.703125 -6.453125 "/></g></g></g></svg>